<mxfile host="app.diagrams.net" modified="2023-02-14T05:16:26.669Z" agent="5.0 (Macintosh; Intel Mac OS X 10_15_7) AppleWebKit/537.36 (KHTML, like Gecko) Chrome/109.0.0.0 Safari/537.36" etag="f9RHB5Gctstco4e1yAMR" version="20.8.20" type="github">
  <diagram name="Page-1" id="jFdqW1qEvwRyydXvKaQp">
    <mxGraphModel dx="1754" dy="1962" grid="1" gridSize="10" guides="1" tooltips="1" connect="1" arrows="1" fold="1" page="1" pageScale="1" pageWidth="850" pageHeight="1100" math="0" shadow="0">
      <root>
        <mxCell id="0" />
        <mxCell id="1" parent="0" />
        <mxCell id="65AoilhB-YamJY0gUT4T-46" value="" style="rounded=1;whiteSpace=wrap;html=1;shadow=0;glass=0;dashed=1;sketch=0;strokeWidth=2;fontSize=11;absoluteArcSize=1;strokeColor=#99FF99;" vertex="1" parent="1">
          <mxGeometry x="480" y="-1040" width="600" height="330" as="geometry" />
        </mxCell>
        <mxCell id="65AoilhB-YamJY0gUT4T-44" value="" style="rounded=1;whiteSpace=wrap;html=1;shadow=0;glass=0;sketch=0;strokeColor=#FFD966;fontSize=11;fillColor=none;strokeWidth=2;dashed=1;" vertex="1" parent="1">
          <mxGeometry x="800" y="-906.87" width="70" height="63.75" as="geometry" />
        </mxCell>
        <mxCell id="65AoilhB-YamJY0gUT4T-39" value="" style="rounded=1;whiteSpace=wrap;html=1;shadow=0;glass=0;sketch=0;strokeColor=#FFD966;fontSize=11;fillColor=none;strokeWidth=2;dashed=1;" vertex="1" parent="1">
          <mxGeometry x="550" y="-906.87" width="170" height="63.75" as="geometry" />
        </mxCell>
        <mxCell id="65AoilhB-YamJY0gUT4T-2" value="" style="rounded=1;whiteSpace=wrap;html=1;dashed=1;strokeColor=#B9E0A5;strokeWidth=2;shadow=0;glass=0;absoluteArcSize=1;" vertex="1" parent="1">
          <mxGeometry x="1140" y="-1040" width="500" height="730" as="geometry" />
        </mxCell>
        <mxCell id="65AoilhB-YamJY0gUT4T-4" value="" style="rounded=1;whiteSpace=wrap;html=1;dashed=1;strokeColor=#FFD966;strokeWidth=2;shadow=0;glass=0;absoluteArcSize=1;" vertex="1" parent="1">
          <mxGeometry x="1160" y="-1010" width="240" height="630" as="geometry" />
        </mxCell>
        <mxCell id="65AoilhB-YamJY0gUT4T-5" value="" style="rounded=1;whiteSpace=wrap;html=1;dashed=1;strokeColor=#FFD966;strokeWidth=2;shadow=0;glass=0;absoluteArcSize=1;" vertex="1" parent="1">
          <mxGeometry x="1490" y="-1010" width="120" height="630" as="geometry" />
        </mxCell>
        <mxCell id="65AoilhB-YamJY0gUT4T-6" value="" style="sketch=0;aspect=fixed;pointerEvents=1;shadow=0;dashed=0;html=1;strokeColor=none;labelPosition=center;verticalLabelPosition=bottom;verticalAlign=top;align=center;fillColor=#3399FF;shape=mxgraph.azure.server_rack" vertex="1" parent="1">
          <mxGeometry x="1233" y="-990" width="85" height="85" as="geometry" />
        </mxCell>
        <mxCell id="65AoilhB-YamJY0gUT4T-9" value="&lt;b&gt;Account&lt;/b&gt;" style="text;html=1;strokeColor=none;fillColor=none;align=center;verticalAlign=middle;whiteSpace=wrap;rounded=0;" vertex="1" parent="1">
          <mxGeometry x="1245.5" y="-890" width="60" height="30" as="geometry" />
        </mxCell>
        <mxCell id="65AoilhB-YamJY0gUT4T-10" value="" style="sketch=0;aspect=fixed;pointerEvents=1;shadow=0;dashed=0;html=1;strokeColor=none;labelPosition=center;verticalLabelPosition=bottom;verticalAlign=top;align=center;fillColor=#3399FF;shape=mxgraph.azure.server_rack" vertex="1" parent="1">
          <mxGeometry x="1233" y="-840" width="85" height="85" as="geometry" />
        </mxCell>
        <mxCell id="65AoilhB-YamJY0gUT4T-11" value="&lt;b&gt;Ranking&lt;/b&gt;" style="text;html=1;strokeColor=none;fillColor=none;align=center;verticalAlign=middle;whiteSpace=wrap;rounded=0;" vertex="1" parent="1">
          <mxGeometry x="1245.5" y="-740" width="60" height="30" as="geometry" />
        </mxCell>
        <mxCell id="65AoilhB-YamJY0gUT4T-12" value="" style="sketch=0;aspect=fixed;pointerEvents=1;shadow=0;dashed=0;html=1;strokeColor=none;labelPosition=center;verticalLabelPosition=bottom;verticalAlign=top;align=center;fillColor=#3399FF;shape=mxgraph.azure.server_rack" vertex="1" parent="1">
          <mxGeometry x="1233" y="-690" width="85" height="85" as="geometry" />
        </mxCell>
        <mxCell id="65AoilhB-YamJY0gUT4T-13" value="&lt;b&gt;Configurations&lt;/b&gt;" style="text;html=1;strokeColor=none;fillColor=none;align=center;verticalAlign=middle;whiteSpace=wrap;rounded=0;" vertex="1" parent="1">
          <mxGeometry x="1245.5" y="-590" width="60" height="30" as="geometry" />
        </mxCell>
        <mxCell id="65AoilhB-YamJY0gUT4T-14" value="" style="sketch=0;aspect=fixed;pointerEvents=1;shadow=0;dashed=0;html=1;strokeColor=none;labelPosition=center;verticalLabelPosition=bottom;verticalAlign=top;align=center;fillColor=#3399FF;shape=mxgraph.azure.server_rack" vertex="1" parent="1">
          <mxGeometry x="1233" y="-550" width="85" height="85" as="geometry" />
        </mxCell>
        <mxCell id="65AoilhB-YamJY0gUT4T-15" value="&lt;b&gt;Chart&lt;/b&gt;" style="text;html=1;strokeColor=none;fillColor=none;align=center;verticalAlign=middle;whiteSpace=wrap;rounded=0;" vertex="1" parent="1">
          <mxGeometry x="1245.5" y="-450" width="60" height="30" as="geometry" />
        </mxCell>
        <mxCell id="65AoilhB-YamJY0gUT4T-16" value="" style="outlineConnect=0;dashed=0;verticalLabelPosition=bottom;verticalAlign=top;align=center;html=1;shape=mxgraph.aws3.elasticsearch_service;fillColor=#F58534;gradientColor=none;rounded=1;shadow=0;glass=0;sketch=0;strokeColor=#FFD966;" vertex="1" parent="1">
          <mxGeometry x="1516.25" y="-930.5" width="67.5" height="81" as="geometry" />
        </mxCell>
        <mxCell id="65AoilhB-YamJY0gUT4T-17" value="&lt;b&gt;ElasticSearch&lt;/b&gt;" style="text;html=1;strokeColor=none;fillColor=none;align=center;verticalAlign=middle;whiteSpace=wrap;rounded=0;" vertex="1" parent="1">
          <mxGeometry x="1523.75" y="-849.5" width="60" height="30" as="geometry" />
        </mxCell>
        <mxCell id="65AoilhB-YamJY0gUT4T-18" value="" style="sketch=0;aspect=fixed;html=1;points=[];align=center;image;fontSize=12;image=img/lib/mscae/Cache_Redis_Product.svg;rounded=1;shadow=0;glass=0;strokeColor=#FFD966;fillColor=#3399FF;" vertex="1" parent="1">
          <mxGeometry x="1515" y="-786.4" width="70" height="58.8" as="geometry" />
        </mxCell>
        <mxCell id="65AoilhB-YamJY0gUT4T-19" value="&lt;b&gt;Redis&lt;/b&gt;" style="text;html=1;strokeColor=none;fillColor=none;align=center;verticalAlign=middle;whiteSpace=wrap;rounded=0;" vertex="1" parent="1">
          <mxGeometry x="1520" y="-719.5" width="60" height="30" as="geometry" />
        </mxCell>
        <mxCell id="65AoilhB-YamJY0gUT4T-20" value="" style="shape=image;verticalLabelPosition=bottom;verticalAlign=top;imageAspect=0;image=data:image/png,iVBORw0KGgoAAAANSUhEUgAAAHgAAAEBCAYAAACzPmFvAAAACXBIWXMAAAsTAAALEwEAmpwYAAAAAXNSR0IArs4c6QAAAARnQU1BAACxjwv8YQUAAA3eSURBVHgB7Z1bchvHFYZPD6AqvZmsyKrKU6AVRFpBaG3ASjYQxiZdfpOcBURMFhDbby5biuQNRPYGYmUFUlYg+ClVlmzIb67iYNp9ZgDiNpfume6ePqf7q5JIAsML8M+59pkegJhYnH0KP6p/ESEgFt6cn4KQT8rPpfwj3Hj8DURAHAIvPp5Bcfmdermz1SNvIZvegeMv5sCcDGJA5k+2xEWOqsf4w1/gxdlDkHBy8Dg+9uPZA2AObxe9OL8NhXzRekwB78G7j54DU/hacBl3i2edx2Uq8VqcHgFT+Aq8vLzYi7sNqGOKKdt4zFNgjLtC/NngO+5xjcf8YnDpmvNX0IeluAM3v3oJjOBlwVf1bk8mKmYzi8e8BC4uP9WLu00IdvGYj8AYd0Hcg+Gwisc8YrBOvWsKk/qYvgXr1rumlPWx+tnEoS/wMn82LO42oX4mg341bYHLehdugyuqfjXp9WO6MXh7fdc1WXYKx19+DQShKXBV76qkSviqWcmuH9Nz0ZvFe58NiaPydxJsgtATeHAzoy/qd8qp/WzdMbQEttfM6AcmXeXfQAc6MdhnUtUFoaSLhsD+k6ouyCRd4bvocZKqLsgkXeEL7KxTNRRBIukKW2C8EsFlp2ooBDpd4QqM2WoBFJbtHoS8vBhmkvXmo3sgClo1Z6DLi+EJfHiZCRWCzKzDc9E0xUXwcpjgZrrCEhiTKhAzoIpUCWExDarTFY7Ai/P7RJKqLoJKusKIweF1qoYSTDwOw4LD61QNJZhO1/gCU4+7jYhZCPF4XBcd0gqRK0beLmI8genWu6aMGo/Hc9GH2ypwZdTtIsYRuGlbBa6MuF2Efxc95PJO2oziqv1b8JDLO2lTtTI941fgamhuBrGCrczXZxfgEX8uOl7XfIjHnQT8WXC8rvmQqb/a34/AsbvmfTy6avcuOrnmJrxk1e4teITMkQheGiBuBcZeswx4KnJsPDRA3LnoeHrNQ1GuOr8Fx0/fggPcWbD2VoLRc+RyWdGNBf9wfhsmlne94Y6jsVs3FjwhNtMcAhNwYsX2BcbECsQMEmY4SrjsuuiUWA3FesJl2YLz+0ncQRxBPrVqxfYsOHWs7JFNb9nqcNmz4LIsSljBYofLjgWnssg+lsomOxY8lVHdLs4Llsqm4QJX/eYTSNgF39PXZycwkOECi4LUvlGksGDFwwROTQ23WLDiYQIn63XPQCvuL3CyXj8MtOL+Aifr9ccAK+4ncLJevwyw4n4CZ9LktnEJG/S0YnOB8UxKda9/elqxucBCnkJiHHpYsVkvOq0YjY/hSpOZBacVo/HJL43Wi/UtuLJeXDFie7dsIhhNfehb8HJ5AkncEDCa+tAXODU2wkHA+7qH6glcpudiBokwEOXViSc6h+oJnEqj8Mjgvs5h3UlWKo1CRSvZ6rbgKrlKhMcRXE5Puw7ScNFSyxUkRmDanWy1u+jknsOnY/qy3YINuyaJUThpe7Jd4Ey/3kqMBGbTr89anm4i1b5UwO7iSdOTzQKn2pcQsvGWuy0Cwx8gQYMse7/JTdcLvDi/ndwzJeQMGtx0vcC5HO8u24m+nNQ9WC+wSNkzOSYqpC5ODx4+FBibGyHf0nUIEr5V/7zs8uqdahDyYL3+UGDOvWchFurknQNXltcOQmuNiy5OgCuF/F6d6T8DV2oqn0znoAQVVHL8w/nOI7sCx1AeSelkT8hAwBi8kz/tCrxkvjOsEHP1H2eBFfJk+6tdgYVM5RF1JuL321/uxWDJ24InUmXRxRxYo+Lw/z+++mojMNa/IGbAmZxxBr0B4/Bs/cVG4OVl2pmdC9c2vYyNwLFcEiqzOXBHFlfGuhF4LzizJJ/OIQa2tNy24Dhc9JR7mQSVlqtEqxK4TLAiuLDs+i9K3Ev+Am8lWpXAeT6DGHB0Z5MguZ6XbroSOK57G8Uh8iXcwg+VwFkMAmObEuKx4lWitRb4d5Dghay6kvG46O1VJCHnwB0hjnCEZ10mxbA1QzwJVkk5aXmUVWvACZb8cl0JnMv4NlYpImh2IKpUytTy2QxiQKyyaCSLxF0vxXGmmu8ziA0ZicBSzlSSFYmLLorNWjDnycodpIrBmE5HQSRxd5sseyeLssnBe7JyQ+WiI2E7yYrHmo+yVUGc4IgKv/FYME5UrokliwasCGUkSdb2RGVWRCKwLC04bRHMl4hc9A7xlEzxCLw9USmTwLyJYbJyRTwClxOVa6KYrCyJR+CYJiq3iDTJiqkOjmE+aV/QeKz5bSQWHOFKUomIReBaohA9uxoI54ysCUMigiVD9bpjtuAoyKCA7yFGYpisVGvgWRTTDaImDMUwWVkUP2fxZpgxgFk0+22FYHei8uqxCEJT5aIj2JQkVi9VZtHTfA4Jnkh00cdP58CduhksyXjf6DU3v3pZ1cHc+9FZhC56tbP96gJw8RJig/9kZfn6KoFxJ3TO1LUquU9WSvk//LC24DkkeLHSdBWDmd6JpBXmcVlsx+Bpzlvguj0quU9WrjStBMYJhzgmO+IAM+jV1MpmubAQ/wWu7ExUruDd4LlKmrcEZhyHY5uoLOD5+tONwFEmWkzZ0nIjMN9Eq956Obdo3330fP3pRuAy0dqYNh8ia1PKXQ33boxVdT8igp/4clfDvaE78Q1wQ7aUfywnK3c13BW4isNphIcyW/EX2RW4isPxZNPcJivlYQ51OBedw7fACdGykMJtsrI41O5Q4Gs5vzgcCzXaHQqM9SGnvnTdROXVc5wmK5VmNbV9/aUrS05uOpI6uKjXrOHaJIblEnvqNasXuEq1eZz5bbNXbCYrlXveK4/WNF9dWMivgQNxTFQ+b3qi5fLRCNw0l8nKZfZ501PNAqPJc8im21qVLCYr5SsccG96tv0C8KXg4aY5k8Hf259uY5p/BqzhEJ+XraNW7QJzWCNuu+s39clKqWrfjsGF7j06lu0uIDEiE3jSdUi3wNRr4rqJyjWkJytVcnX8qLPjqLfLTgGfA1W4TlRmep5VT+Aq2UqDAEGx1Jpj1xMYrUBKigsQ7Scl2clK+VT3b9ffCE2Kp0AOpm3KbKmd+OoLXHa2OI7VUgs9+taLmG1lSK1kkhqtVmqTlYVZd9FMYL5WTAMcqmtYFmzCfDNSbo0PSpOV0vy9NxeYkhULja0pqExW9rBepN92wql96R/Z7z3vJzAVK26bqLw6hsJkpcqce1gv0n9DcBJWzKQONqh7D74V+lJZ8XeQcIxZ3bvPsC39Rf4BhIzOzFXok5UDrLf8dhgCnlmFDHfqg/pEZaHC4MB++TCBkWl5hi2AKsFOVqr1XgsjU8MFLtdbi39AiOi0KkOdrMxK6x38tw0XGPnNvz5LLUyLSHgBx4+tTLTaERgh2/wIME5P8j+BJewJjGVTaAmXztRkaJOVFhKrbewJjJQJl0oOQmE5obbW+0oZygVYxK7A5WgP/BUoEdJkZSGs9xXsCozceIwXrT2DEPjtF3MgQ/9+cxv2BS5/atnholsbe0e55oEdqybcCFxNYY7dxtSLvyFMVqJrdvR3uBEYQVc9alZNpE2J75ED17zGncBIaFl1MyOdDJg1P/4EHOJWYHTVDjJDLaTBxetjTVZmy7vgGLcCI2UDJI34HGC5odGEe4ERLN7TcMAWZUl0AR7wIzBSDgd4jcfd81hX+LwxmLuSqA5/ApfDAR7jsRAh1uGyjLseSzN/AiOhxmNfk5VL1cb1XHf7FRipYo/7VmZoN9zEevfmI+99Af8Cl7/VezweF1zAd1zvNjGOwFgfVzWguzhpMmvldLJSncgWF/BNGUdgpEy6AF+4BBcEMVEpF76Tqn3GExgpe7AFrfVjEyR8MPZixrgCIziw5yKzNmpVFvrH6oKvqVobH5XxBUYws5aqu8MFFNdTp6qLMARGbjz+i2pnvgDqSH9tSB3CERgR+V1r5ZPJtKTM5mADLIfwRA2IsAS+Kp8siOx7ohLFneTOl/9MCUtgBLNOWyLrMniyclXrBrhtYngCIzZE9jZRWa4O3R27HGoiTIGRMSzZmLDFRcIVGPElci+BwhcXCVtgpJfIrhfwaYiLhC8w0kfkxZn2oUbHEhIXoSEwYiSynKn/LmDxUfehlbgXoAOWQoTERQRQY3E6g2LyH/Wn3+o8Nsuw6fAUjr9s+FkrcQt4CF2s61xiO8jTExhBkeX03+pNv9N5bJPIRuKq9mNgHSpd6Ljobcp7HJddo+7Rn6LAO5Oc7sRZfXHlalWIpLgITQve5vXZhTpNu62wuonFBVSv+aGWuDgkN8IclU3oC4xUIv8Nul5PJfI7StwHrcfhJAYu1gewnjsUHgIjbz68p17NP7WSr1ZolUFd8BEYMcmw68BkarL8hNO9lngJvOanD1+p9eCZybeUG27fePQeMINmFt1Jr1alwbVMdOApcJ/9J8O8lmkwXAU2t8bQLnWxBFeB52BKsLvODiO56DXU95ZugKfAfbYINhmUJwTXLDrdCncFT4EnPeac8+kcGMLUgi/NLZjUvpb68BTYvI/M1qUzteCSQC4AHxe+ApvtXpcsmB5G/WiWfWiEr8AmWyMxrYERvgJLExfNt27m7KL1RRM+tzL0C+Mky2DfjeSiKWJyhX9y0fSYLF9qH3vtcg5MSY0OhNGQ3T58BdYWjW+ChXC2YOxmzTuPYZxgIbwF1rNOtl0shLfAOt2sZMGE0elmyRSD6aIj3jVgvTE5b4F1hu/yFIPpMpl0NzuYzmKtYZ5Fa8xmMZ3FSkTCr3nPZT1IStkiAAAAAElFTkSuQmCC;dashed=1;movable=1;resizable=1;rotatable=1;deletable=1;editable=1;locked=0;connectable=1;" vertex="1" parent="1">
          <mxGeometry x="1527.13" y="-649.5" width="45.75" height="87.5" as="geometry" />
        </mxCell>
        <mxCell id="65AoilhB-YamJY0gUT4T-21" value="&lt;b&gt;MongoDB&lt;/b&gt;" style="text;html=1;strokeColor=none;fillColor=none;align=center;verticalAlign=middle;whiteSpace=wrap;rounded=0;" vertex="1" parent="1">
          <mxGeometry x="1520.01" y="-549.5" width="60" height="30" as="geometry" />
        </mxCell>
        <mxCell id="65AoilhB-YamJY0gUT4T-22" value="" style="endArrow=classic;startArrow=classic;html=1;rounded=0;entryX=0;entryY=0.25;entryDx=0;entryDy=0;exitX=1;exitY=0.25;exitDx=0;exitDy=0;strokeWidth=2;strokeColor=#99CCFF;" edge="1" parent="1" source="65AoilhB-YamJY0gUT4T-4" target="65AoilhB-YamJY0gUT4T-5">
          <mxGeometry width="50" height="50" relative="1" as="geometry">
            <mxPoint x="1430" y="-880" as="sourcePoint" />
            <mxPoint x="1480" y="-930" as="targetPoint" />
          </mxGeometry>
        </mxCell>
        <mxCell id="65AoilhB-YamJY0gUT4T-23" value="" style="endArrow=classic;startArrow=classic;html=1;rounded=0;entryX=0;entryY=0.25;entryDx=0;entryDy=0;exitX=1;exitY=0.25;exitDx=0;exitDy=0;strokeWidth=2;strokeColor=#99CCFF;" edge="1" parent="1">
          <mxGeometry width="50" height="50" relative="1" as="geometry">
            <mxPoint x="1400" y="-798" as="sourcePoint" />
            <mxPoint x="1490" y="-798" as="targetPoint" />
          </mxGeometry>
        </mxCell>
        <mxCell id="65AoilhB-YamJY0gUT4T-24" value="" style="endArrow=classic;startArrow=classic;html=1;rounded=0;entryX=0;entryY=0.25;entryDx=0;entryDy=0;exitX=1;exitY=0.25;exitDx=0;exitDy=0;strokeWidth=2;strokeColor=#99CCFF;" edge="1" parent="1">
          <mxGeometry width="50" height="50" relative="1" as="geometry">
            <mxPoint x="1400" y="-648" as="sourcePoint" />
            <mxPoint x="1490" y="-648" as="targetPoint" />
          </mxGeometry>
        </mxCell>
        <mxCell id="65AoilhB-YamJY0gUT4T-25" value="" style="endArrow=classic;startArrow=classic;html=1;rounded=0;entryX=0;entryY=0.25;entryDx=0;entryDy=0;exitX=1;exitY=0.25;exitDx=0;exitDy=0;strokeWidth=2;strokeColor=#99CCFF;" edge="1" parent="1">
          <mxGeometry width="50" height="50" relative="1" as="geometry">
            <mxPoint x="1400" y="-519.5" as="sourcePoint" />
            <mxPoint x="1490" y="-519.5" as="targetPoint" />
          </mxGeometry>
        </mxCell>
        <mxCell id="65AoilhB-YamJY0gUT4T-26" value="&lt;b style=&quot;font-size: 13px;&quot;&gt;Backend Servers&lt;/b&gt;" style="text;html=1;strokeColor=none;fillColor=none;align=center;verticalAlign=middle;whiteSpace=wrap;rounded=0;perimeterSpacing=0;fontSize=13;" vertex="1" parent="1">
          <mxGeometry x="1200" y="-420" width="160" height="30" as="geometry" />
        </mxCell>
        <mxCell id="65AoilhB-YamJY0gUT4T-27" value="&lt;b style=&quot;font-size: 13px;&quot;&gt;Backend Databases&lt;/b&gt;" style="text;html=1;strokeColor=none;fillColor=none;align=center;verticalAlign=middle;whiteSpace=wrap;rounded=0;perimeterSpacing=0;fontSize=13;" vertex="1" parent="1">
          <mxGeometry x="1470" y="-420" width="160" height="30" as="geometry" />
        </mxCell>
        <mxCell id="65AoilhB-YamJY0gUT4T-28" value="&lt;b style=&quot;font-size: 13px;&quot;&gt;Centralized backend servers and databases&lt;/b&gt;" style="text;html=1;strokeColor=none;fillColor=none;align=center;verticalAlign=middle;whiteSpace=wrap;rounded=0;perimeterSpacing=0;fontSize=13;" vertex="1" parent="1">
          <mxGeometry x="1200" y="-360" width="440" height="30" as="geometry" />
        </mxCell>
        <mxCell id="65AoilhB-YamJY0gUT4T-31" value="" style="sketch=0;aspect=fixed;html=1;points=[];align=center;image;fontSize=12;image=img/lib/mscae/Cache_Redis_Product.svg;rounded=1;shadow=0;glass=0;strokeColor=#FFD966;fillColor=#3399FF;" vertex="1" parent="1">
          <mxGeometry x="1002.5" y="-1010" width="50" height="42" as="geometry" />
        </mxCell>
        <mxCell id="65AoilhB-YamJY0gUT4T-33" value="&lt;b&gt;Edge Cache&lt;/b&gt;" style="text;html=1;strokeColor=none;fillColor=none;align=center;verticalAlign=middle;whiteSpace=wrap;rounded=0;fontSize=11;" vertex="1" parent="1">
          <mxGeometry x="985" y="-970" width="85" height="30" as="geometry" />
        </mxCell>
        <mxCell id="65AoilhB-YamJY0gUT4T-34" value="" style="sketch=0;aspect=fixed;pointerEvents=1;shadow=0;dashed=0;html=1;strokeColor=none;labelPosition=center;verticalLabelPosition=bottom;verticalAlign=top;align=center;fillColor=#3399FF;shape=mxgraph.azure.server_rack" vertex="1" parent="1">
          <mxGeometry x="570" y="-898.75" width="47.5" height="47.5" as="geometry" />
        </mxCell>
        <mxCell id="65AoilhB-YamJY0gUT4T-35" value="" style="sketch=0;aspect=fixed;pointerEvents=1;shadow=0;dashed=0;html=1;strokeColor=none;labelPosition=center;verticalLabelPosition=bottom;verticalAlign=top;align=center;fillColor=#3399FF;shape=mxgraph.azure.server_rack" vertex="1" parent="1">
          <mxGeometry x="630" y="-898.74" width="47.5" height="47.5" as="geometry" />
        </mxCell>
        <mxCell id="65AoilhB-YamJY0gUT4T-37" value="" style="shape=image;html=1;verticalAlign=top;verticalLabelPosition=bottom;labelBackgroundColor=#ffffff;imageAspect=0;aspect=fixed;image=https://cdn4.iconfinder.com/data/icons/essential-app-1/16/dot-more-menu-hide-128.png;dashed=1;" vertex="1" parent="1">
          <mxGeometry x="690" y="-885" width="20" height="20" as="geometry" />
        </mxCell>
        <mxCell id="65AoilhB-YamJY0gUT4T-45" value="" style="sketch=0;aspect=fixed;pointerEvents=1;shadow=0;dashed=0;html=1;strokeColor=none;labelPosition=center;verticalLabelPosition=bottom;verticalAlign=top;align=center;fillColor=#3399FF;shape=mxgraph.azure.server_rack" vertex="1" parent="1">
          <mxGeometry x="811.25" y="-897" width="47.5" height="47.5" as="geometry" />
        </mxCell>
        <mxCell id="65AoilhB-YamJY0gUT4T-48" value="" style="rounded=1;whiteSpace=wrap;html=1;shadow=0;glass=0;sketch=0;strokeColor=#FFD966;fontSize=11;fillColor=none;strokeWidth=2;dashed=1;" vertex="1" parent="1">
          <mxGeometry x="990" y="-1010" width="72.5" height="63.75" as="geometry" />
        </mxCell>
        <mxCell id="65AoilhB-YamJY0gUT4T-49" value="" style="endArrow=classic;startArrow=classic;html=1;rounded=0;entryX=0;entryY=0.5;entryDx=0;entryDy=0;exitX=1;exitY=0.25;exitDx=0;exitDy=0;strokeWidth=2;strokeColor=#99CCFF;" edge="1" parent="1" target="65AoilhB-YamJY0gUT4T-48">
          <mxGeometry width="50" height="50" relative="1" as="geometry">
            <mxPoint x="870" y="-905" as="sourcePoint" />
            <mxPoint x="960" y="-905" as="targetPoint" />
          </mxGeometry>
        </mxCell>
        <mxCell id="65AoilhB-YamJY0gUT4T-51" value="" style="endArrow=classic;startArrow=classic;html=1;rounded=0;entryX=-0.005;entryY=0.193;entryDx=0;entryDy=0;exitX=1.007;exitY=0.155;exitDx=0;exitDy=0;strokeWidth=2;strokeColor=#99CCFF;entryPerimeter=0;exitPerimeter=0;" edge="1" parent="1" source="65AoilhB-YamJY0gUT4T-44" target="65AoilhB-YamJY0gUT4T-2">
          <mxGeometry width="50" height="50" relative="1" as="geometry">
            <mxPoint x="880" y="-895" as="sourcePoint" />
            <mxPoint x="1000" y="-968" as="targetPoint" />
          </mxGeometry>
        </mxCell>
        <mxCell id="65AoilhB-YamJY0gUT4T-52" value="Database Proxy" style="text;html=1;strokeColor=none;fillColor=none;align=center;verticalAlign=middle;whiteSpace=wrap;rounded=0;fontSize=11;" vertex="1" parent="1">
          <mxGeometry x="792.5" y="-830" width="85" height="30" as="geometry" />
        </mxCell>
        <mxCell id="65AoilhB-YamJY0gUT4T-53" value="Frontend servers" style="text;html=1;strokeColor=none;fillColor=none;align=center;verticalAlign=middle;whiteSpace=wrap;rounded=0;fontSize=11;" vertex="1" parent="1">
          <mxGeometry x="592.5" y="-830" width="97.5" height="30" as="geometry" />
        </mxCell>
        <mxCell id="65AoilhB-YamJY0gUT4T-54" value="" style="endArrow=classic;startArrow=classic;html=1;rounded=0;exitX=1;exitY=0.25;exitDx=0;exitDy=0;strokeWidth=2;strokeColor=#99CCFF;" edge="1" parent="1">
          <mxGeometry width="50" height="50" relative="1" as="geometry">
            <mxPoint x="720" y="-873.75" as="sourcePoint" />
            <mxPoint x="800" y="-874" as="targetPoint" />
          </mxGeometry>
        </mxCell>
        <mxCell id="65AoilhB-YamJY0gUT4T-55" value="" style="sketch=0;html=1;aspect=fixed;strokeColor=none;shadow=0;align=center;verticalAlign=top;fillColor=#3B8DF1;shape=mxgraph.gcp2.phone_android;rounded=1;glass=0;dashed=1;strokeWidth=2;fontSize=11;" vertex="1" parent="1">
          <mxGeometry x="220" y="-927.4" width="56" height="100" as="geometry" />
        </mxCell>
        <mxCell id="65AoilhB-YamJY0gUT4T-56" value="WorldWide Players" style="text;html=1;strokeColor=none;fillColor=none;align=center;verticalAlign=middle;whiteSpace=wrap;rounded=0;fontSize=11;" vertex="1" parent="1">
          <mxGeometry x="216" y="-816.4" width="60" height="30" as="geometry" />
        </mxCell>
        <mxCell id="65AoilhB-YamJY0gUT4T-57" value="" style="endArrow=classic;startArrow=classic;html=1;rounded=0;exitX=1;exitY=0.25;exitDx=0;exitDy=0;strokeWidth=2;strokeColor=#99CCFF;entryX=-0.001;entryY=0.389;entryDx=0;entryDy=0;entryPerimeter=0;" edge="1" parent="1">
          <mxGeometry width="50" height="50" relative="1" as="geometry">
            <mxPoint x="276" y="-877.15" as="sourcePoint" />
            <mxPoint x="479.4000000000001" y="-879.0300000000001" as="targetPoint" />
          </mxGeometry>
        </mxCell>
      </root>
    </mxGraphModel>
  </diagram>
</mxfile>
